<?xml version="1.0" encoding="UTF-8" standalone="no"?>
<svg xmlns="http://www.w3.org/2000/svg"
     xmlns:xlink="http://www.w3.org/1999/xlink"
     width="576px" height="432px" viewBox="0 0 576 432">
<title>glps_renderer figure</title>
<desc>
Creator: GL2PS 1.3.9, (C) 1999-2015 C. Geuzaine
For: Octave
CreationDate: Thu Mar 16 22:27:29 2017
</desc>
<defs>
</defs>
<g shape-rendering="crispEdges">
<polygon fill="#ffffff" points="74.88,32.4 521.28,384.48 521.28,32.4"/>
<polygon fill="#ffffff" points="74.88,32.4 74.88,384.48 521.28,384.48"/>
<polyline fill="none" stroke="#000000" stroke-width="0.5" stroke-dasharray="16,0" points="74.88,32.4 521.28,32.4"/>
<polyline fill="none" stroke="#000000" stroke-width="0.5" stroke-dasharray="16,0" points="74.88,384.48 74.88,32.4"/>
<polyline fill="none" stroke="#000000" stroke-width="0.5" stroke-dasharray="16,0" points="521.28,384.48 521.28,32.4"/>
<polyline fill="none" stroke="#000000" stroke-width="0.5" stroke-dasharray="16,0" points="74.88,384.48 74.88,380.015"/>
<polyline fill="none" stroke="#000000" stroke-width="0.5" stroke-dasharray="16,0" points="74.88,32.4 74.88,36.865"/>
<polyline fill="none" stroke="#000000" stroke-width="0.5" stroke-dasharray="16,0" points="149.28,384.48 149.28,380.015"/>
<polyline fill="none" stroke="#000000" stroke-width="0.5" stroke-dasharray="16,0" points="149.28,32.4 149.28,36.865"/>
<polyline fill="none" stroke="#000000" stroke-width="0.5" stroke-dasharray="16,0" points="223.68,384.48 223.68,380.015"/>
<polyline fill="none" stroke="#000000" stroke-width="0.5" stroke-dasharray="16,0" points="223.68,32.4 223.68,36.865"/>
<polyline fill="none" stroke="#000000" stroke-width="0.5" stroke-dasharray="16,0" points="298.08,384.48 298.08,380.015"/>
<polyline fill="none" stroke="#000000" stroke-width="0.5" stroke-dasharray="16,0" points="298.08,32.4 298.08,36.865"/>
<polyline fill="none" stroke="#000000" stroke-width="0.5" stroke-dasharray="16,0" points="372.48,384.48 372.48,380.015"/>
<polyline fill="none" stroke="#000000" stroke-width="0.5" stroke-dasharray="16,0" points="372.48,32.4 372.48,36.865"/>
<polyline fill="none" stroke="#000000" stroke-width="0.5" stroke-dasharray="16,0" points="446.88,384.48 446.88,380.015"/>
<polyline fill="none" stroke="#000000" stroke-width="0.5" stroke-dasharray="16,0" points="446.88,32.4 446.88,36.865"/>
<polyline fill="none" stroke="#000000" stroke-width="0.5" stroke-dasharray="16,0" points="521.28,384.48 521.28,380.015"/>
<polyline fill="none" stroke="#000000" stroke-width="0.5" stroke-dasharray="16,0" points="521.28,32.4 521.28,36.865"/>
<text fill="#000000" x="74.88" y="389.481" font-size="10" text-anchor="middle" baseline-shift="-10" font-family="Helvetica">20</text>
<text fill="#000000" x="149.28" y="389.481" font-size="10" text-anchor="middle" baseline-shift="-10" font-family="Helvetica">30</text>
<text fill="#000000" x="223.68" y="389.481" font-size="10" text-anchor="middle" baseline-shift="-10" font-family="Helvetica">40</text>
<text fill="#000000" x="298.08" y="389.481" font-size="10" text-anchor="middle" baseline-shift="-10" font-family="Helvetica">50</text>
<text fill="#000000" x="372.48" y="389.481" font-size="10" text-anchor="middle" baseline-shift="-10" font-family="Helvetica">60</text>
<text fill="#000000" x="446.88" y="389.481" font-size="10" text-anchor="middle" baseline-shift="-10" font-family="Helvetica">70</text>
<text fill="#000000" x="521.28" y="389.481" font-size="10" text-anchor="middle" baseline-shift="-10" font-family="Helvetica">80</text>
<polyline fill="none" stroke="#000000" stroke-width="0.5" stroke-dasharray="16,0" points="74.88,384.48 79.348,384.48"/>
<polyline fill="none" stroke="#000000" stroke-width="0.5" stroke-dasharray="16,0" points="521.28,384.48 516.812,384.48"/>
<polyline fill="none" stroke="#000000" stroke-width="0.5" stroke-dasharray="16,0" points="74.88,314.064 79.348,314.064"/>
<polyline fill="none" stroke="#000000" stroke-width="0.5" stroke-dasharray="16,0" points="521.28,314.064 516.812,314.064"/>
<polyline fill="none" stroke="#000000" stroke-width="0.5" stroke-dasharray="16,0" points="74.88,243.648 79.348,243.648"/>
<polyline fill="none" stroke="#000000" stroke-width="0.5" stroke-dasharray="16,0" points="521.28,243.648 516.812,243.648"/>
<polyline fill="none" stroke="#000000" stroke-width="0.5" stroke-dasharray="16,0" points="74.88,173.232 79.348,173.232"/>
<polyline fill="none" stroke="#000000" stroke-width="0.5" stroke-dasharray="16,0" points="521.28,173.232 516.812,173.232"/>
<polyline fill="none" stroke="#000000" stroke-width="0.5" stroke-dasharray="16,0" points="74.88,102.816 79.348,102.816"/>
<polyline fill="none" stroke="#000000" stroke-width="0.5" stroke-dasharray="16,0" points="521.28,102.816 516.812,102.816"/>
<polyline fill="none" stroke="#000000" stroke-width="0.5" stroke-dasharray="16,0" points="74.88,32.4 79.348,32.4"/>
<polyline fill="none" stroke="#000000" stroke-width="0.5" stroke-dasharray="16,0" points="521.28,32.4 516.812,32.4"/>
<text fill="#000000" x="69.8755" y="384.48" font-size="10" text-anchor="end" baseline-shift="-5" font-family="Helvetica">20</text>
<text fill="#000000" x="69.8755" y="314.064" font-size="10" text-anchor="end" baseline-shift="-5" font-family="Helvetica">40</text>
<text fill="#000000" x="69.8755" y="243.648" font-size="10" text-anchor="end" baseline-shift="-5" font-family="Helvetica">60</text>
<text fill="#000000" x="69.8755" y="173.232" font-size="10" text-anchor="end" baseline-shift="-5" font-family="Helvetica">80</text>
<text fill="#000000" x="69.8755" y="102.816" font-size="10" text-anchor="end" baseline-shift="-5" font-family="Helvetica">100</text>
<text fill="#000000" x="69.8755" y="32.4" font-size="10" text-anchor="end" baseline-shift="-5" font-family="Helvetica">120</text>
<text fill="#000000" x="298.08" y="401.481" font-size="10" text-anchor="middle" baseline-shift="-10" font-family="Helvetica">X</text>
<text fill="#000000" x="47.8755" y="208.44" font-size="10" transform="rotate(-90, 47.8755, 208.44)" text-anchor="middle" baseline-shift="0" font-family="Helvetica">Y</text>
<polygon fill="#0000ff" points="169.897,343.262 169.515,344.438 168.515,345.164"/>
<polygon fill="#0000ff" points="169.897,343.262 168.515,345.164 167.279,345.164"/>
<polygon fill="#0000ff" points="169.897,343.262 167.279,345.164 166.279,344.438"/>
<polygon fill="#0000ff" points="169.897,343.262 166.279,344.438 165.897,343.262"/>
<polygon fill="#0000ff" points="169.897,343.262 165.897,343.262 166.279,342.086"/>
<polygon fill="#0000ff" points="169.897,343.262 166.279,342.086 167.279,341.36"/>
<polygon fill="#0000ff" points="169.897,343.262 167.279,341.36 168.515,341.36"/>
<polygon fill="#0000ff" points="169.897,343.262 168.515,341.36 169.515,342.086"/>
<polygon fill="#0000ff" points="325.575,212.744 325.193,213.919 324.193,214.646"/>
<polygon fill="#0000ff" points="325.575,212.744 324.193,214.646 322.957,214.646"/>
<polygon fill="#0000ff" points="325.575,212.744 322.957,214.646 321.957,213.919"/>
<polygon fill="#0000ff" points="325.575,212.744 321.957,213.919 321.575,212.744"/>
<polygon fill="#0000ff" points="325.575,212.744 321.575,212.744 321.957,211.568"/>
<polygon fill="#0000ff" points="325.575,212.744 321.957,211.568 322.957,210.842"/>
<polygon fill="#0000ff" points="325.575,212.744 322.957,210.842 324.193,210.842"/>
<polygon fill="#0000ff" points="325.575,212.744 324.193,210.842 325.193,211.568"/>
<polygon fill="#0000ff" points="385.866,234.626 385.484,235.802 384.484,236.528"/>
<polygon fill="#0000ff" points="385.866,234.626 384.484,236.528 383.248,236.528"/>
<polygon fill="#0000ff" points="385.866,234.626 383.248,236.528 382.248,235.802"/>
<polygon fill="#0000ff" points="385.866,234.626 382.248,235.802 381.866,234.626"/>
<polygon fill="#0000ff" points="385.866,234.626 381.866,234.626 382.248,233.451"/>
<polygon fill="#0000ff" points="385.866,234.626 382.248,233.451 383.248,232.724"/>
<polygon fill="#0000ff" points="385.866,234.626 383.248,232.724 384.484,232.724"/>
<polygon fill="#0000ff" points="385.866,234.626 384.484,232.724 385.484,233.451"/>
<polygon fill="#0000ff" points="281.299,202.995 280.917,204.17 279.917,204.897"/>
<polygon fill="#0000ff" points="281.299,202.995 279.917,204.897 278.681,204.897"/>
<polygon fill="#0000ff" points="281.299,202.995 278.681,204.897 277.681,204.17"/>
<polygon fill="#0000ff" points="281.299,202.995 277.681,204.17 277.299,202.995"/>
<polygon fill="#0000ff" points="281.299,202.995 277.299,202.995 277.681,201.819"/>
<polygon fill="#0000ff" points="281.299,202.995 277.681,201.819 278.681,201.092"/>
<polygon fill="#0000ff" points="281.299,202.995 278.681,201.092 279.917,201.092"/>
<polygon fill="#0000ff" points="281.299,202.995 279.917,201.092 280.917,201.819"/>
<polygon fill="#0000ff" points="373.09,147.773 372.708,148.949 371.708,149.675"/>
<polygon fill="#0000ff" points="373.09,147.773 371.708,149.675 370.472,149.675"/>
<polygon fill="#0000ff" points="373.09,147.773 370.472,149.675 369.472,148.949"/>
<polygon fill="#0000ff" points="373.09,147.773 369.472,148.949 369.09,147.773"/>
<polygon fill="#0000ff" points="373.09,147.773 369.09,147.773 369.472,146.598"/>
<polygon fill="#0000ff" points="373.09,147.773 369.472,146.598 370.472,145.871"/>
<polygon fill="#0000ff" points="373.09,147.773 370.472,145.871 371.708,145.871"/>
<polygon fill="#0000ff" points="373.09,147.773 371.708,145.871 372.708,146.598"/>
<polygon fill="#0000ff" points="338.338,179.529 337.956,180.704 336.956,181.431"/>
<polygon fill="#0000ff" points="338.338,179.529 336.956,181.431 335.72,181.431"/>
<polygon fill="#0000ff" points="338.338,179.529 335.72,181.431 334.72,180.704"/>
<polygon fill="#0000ff" points="338.338,179.529 334.72,180.704 334.338,179.529"/>
<polygon fill="#0000ff" points="338.338,179.529 334.338,179.529 334.72,178.353"/>
<polygon fill="#0000ff" points="338.338,179.529 334.72,178.353 335.72,177.627"/>
<polygon fill="#0000ff" points="338.338,179.529 335.72,177.627 336.956,177.627"/>
<polygon fill="#0000ff" points="338.338,179.529 336.956,177.627 337.956,178.353"/>
<polygon fill="#0000ff" points="316.536,174.493 316.154,175.668 315.154,176.395"/>
<polygon fill="#0000ff" points="316.536,174.493 315.154,176.395 313.918,176.395"/>
<polygon fill="#0000ff" points="316.536,174.493 313.918,176.395 312.918,175.668"/>
<polygon fill="#0000ff" points="316.536,174.493 312.918,175.668 312.536,174.493"/>
<polygon fill="#0000ff" points="316.536,174.493 312.536,174.493 312.918,173.317"/>
<polygon fill="#0000ff" points="316.536,174.493 312.918,173.317 313.918,172.59"/>
<polygon fill="#0000ff" points="316.536,174.493 313.918,172.59 315.154,172.59"/>
<polygon fill="#0000ff" points="316.536,174.493 315.154,172.59 316.154,173.317"/>
<polygon fill="#0000ff" points="220.469,246.565 220.087,247.741 219.087,248.467"/>
<polygon fill="#0000ff" points="220.469,246.565 219.087,248.467 217.851,248.467"/>
<polygon fill="#0000ff" points="220.469,246.565 217.851,248.467 216.851,247.741"/>
<polygon fill="#0000ff" points="220.469,246.565 216.851,247.741 216.469,246.565"/>
<polygon fill="#0000ff" points="220.469,246.565 216.469,246.565 216.851,245.389"/>
<polygon fill="#0000ff" points="220.469,246.565 216.851,245.389 217.851,244.663"/>
<polygon fill="#0000ff" points="220.469,246.565 217.851,244.663 219.087,244.663"/>
<polygon fill="#0000ff" points="220.469,246.565 219.087,244.663 220.087,245.389"/>
<polygon fill="#0000ff" points="285.982,189.67 285.6,190.845 284.6,191.572"/>
<polygon fill="#0000ff" points="285.982,189.67 284.6,191.572 283.363,191.572"/>
<polygon fill="#0000ff" points="285.982,189.67 283.363,191.572 282.363,190.845"/>
<polygon fill="#0000ff" points="285.982,189.67 282.363,190.845 281.982,189.67"/>
<polygon fill="#0000ff" points="285.982,189.67 281.982,189.67 282.363,188.494"/>
<polygon fill="#0000ff" points="285.982,189.67 282.363,188.494 283.363,187.768"/>
<polygon fill="#0000ff" points="285.982,189.67 283.363,187.768 284.6,187.768"/>
<polygon fill="#0000ff" points="285.982,189.67 284.6,187.768 285.6,188.494"/>
<polygon fill="#0000ff" points="319.052,203.86 318.67,205.035 317.67,205.762"/>
<polygon fill="#0000ff" points="319.052,203.86 317.67,205.762 316.434,205.762"/>
<polygon fill="#0000ff" points="319.052,203.86 316.434,205.762 315.434,205.035"/>
<polygon fill="#0000ff" points="319.052,203.86 315.434,205.035 315.052,203.86"/>
<polygon fill="#0000ff" points="319.052,203.86 315.052,203.86 315.434,202.684"/>
<polygon fill="#0000ff" points="319.052,203.86 315.434,202.684 316.434,201.958"/>
<polygon fill="#0000ff" points="319.052,203.86 316.434,201.958 317.67,201.958"/>
<polygon fill="#0000ff" points="319.052,203.86 317.67,201.958 318.67,202.684"/>
<polygon fill="#0000ff" points="266.003,260.669 265.621,261.844 264.621,262.571"/>
<polygon fill="#0000ff" points="266.003,260.669 264.621,262.571 263.385,262.571"/>
<polygon fill="#0000ff" points="266.003,260.669 263.385,262.571 262.385,261.844"/>
<polygon fill="#0000ff" points="266.003,260.669 262.385,261.844 262.003,260.669"/>
<polygon fill="#0000ff" points="266.003,260.669 262.003,260.669 262.385,259.493"/>
<polygon fill="#0000ff" points="266.003,260.669 262.385,259.493 263.385,258.767"/>
<polygon fill="#0000ff" points="266.003,260.669 263.385,258.767 264.621,258.767"/>
<polygon fill="#0000ff" points="266.003,260.669 264.621,258.767 265.621,259.493"/>
<polygon fill="#0000ff" points="332.456,164.504 332.074,165.68 331.074,166.407"/>
<polygon fill="#0000ff" points="332.456,164.504 331.074,166.407 329.838,166.407"/>
<polygon fill="#0000ff" points="332.456,164.504 329.838,166.407 328.838,165.68"/>
<polygon fill="#0000ff" points="332.456,164.504 328.838,165.68 328.456,164.504"/>
<polygon fill="#0000ff" points="332.456,164.504 328.456,164.504 328.838,163.329"/>
<polygon fill="#0000ff" points="332.456,164.504 328.838,163.329 329.838,162.602"/>
<polygon fill="#0000ff" points="332.456,164.504 329.838,162.602 331.074,162.602"/>
<polygon fill="#0000ff" points="332.456,164.504 331.074,162.602 332.074,163.329"/>
<polygon fill="#0000ff" points="256.661,236.575 256.279,237.751 255.279,238.477"/>
<polygon fill="#0000ff" points="256.661,236.575 255.279,238.477 254.042,238.477"/>
<polygon fill="#0000ff" points="256.661,236.575 254.042,238.477 253.042,237.751"/>
<polygon fill="#0000ff" points="256.661,236.575 253.042,237.751 252.661,236.575"/>
<polygon fill="#0000ff" points="256.661,236.575 252.661,236.575 253.042,235.399"/>
<polygon fill="#0000ff" points="256.661,236.575 253.042,235.399 254.042,234.673"/>
<polygon fill="#0000ff" points="256.661,236.575 254.042,234.673 255.279,234.673"/>
<polygon fill="#0000ff" points="256.661,236.575 255.279,234.673 256.279,235.399"/>
<polygon fill="#0000ff" points="360.853,189.453 360.471,190.628 359.471,191.355"/>
<polygon fill="#0000ff" points="360.853,189.453 359.471,191.355 358.235,191.355"/>
<polygon fill="#0000ff" points="360.853,189.453 358.235,191.355 357.235,190.628"/>
<polygon fill="#0000ff" points="360.853,189.453 357.235,190.628 356.853,189.453"/>
<polygon fill="#0000ff" points="360.853,189.453 356.853,189.453 357.235,188.277"/>
<polygon fill="#0000ff" points="360.853,189.453 357.235,188.277 358.235,187.551"/>
<polygon fill="#0000ff" points="360.853,189.453 358.235,187.551 359.471,187.551"/>
<polygon fill="#0000ff" points="360.853,189.453 359.471,187.551 360.471,188.277"/>
<polygon fill="#0000ff" points="350.13,168.175 349.748,169.351 348.748,170.078"/>
<polygon fill="#0000ff" points="350.13,168.175 348.748,170.078 347.512,170.078"/>
<polygon fill="#0000ff" points="350.13,168.175 347.512,170.078 346.512,169.351"/>
<polygon fill="#0000ff" points="350.13,168.175 346.512,169.351 346.13,168.175"/>
<polygon fill="#0000ff" points="350.13,168.175 346.13,168.175 346.512,167"/>
<polygon fill="#0000ff" points="350.13,168.175 346.512,167 347.512,166.273"/>
<polygon fill="#0000ff" points="350.13,168.175 347.512,166.273 348.748,166.273"/>
<polygon fill="#0000ff" points="350.13,168.175 348.748,166.273 349.748,167"/>
<polygon fill="#0000ff" points="292.312,241.1 291.93,242.276 290.93,243.002"/>
<polygon fill="#0000ff" points="292.312,241.1 290.93,243.002 289.694,243.002"/>
<polygon fill="#0000ff" points="292.312,241.1 289.694,243.002 288.694,242.276"/>
<polygon fill="#0000ff" points="292.312,241.1 288.694,242.276 288.312,241.1"/>
<polygon fill="#0000ff" points="292.312,241.1 288.312,241.1 288.694,239.925"/>
<polygon fill="#0000ff" points="292.312,241.1 288.694,239.925 289.694,239.198"/>
<polygon fill="#0000ff" points="292.312,241.1 289.694,239.198 290.93,239.198"/>
<polygon fill="#0000ff" points="292.312,241.1 290.93,239.198 291.93,239.925"/>
<polygon fill="#0000ff" points="260.553,163.048 260.171,164.224 259.171,164.95"/>
<polygon fill="#0000ff" points="260.553,163.048 259.171,164.95 257.935,164.95"/>
<polygon fill="#0000ff" points="260.553,163.048 257.935,164.95 256.935,164.224"/>
<polygon fill="#0000ff" points="260.553,163.048 256.935,164.224 256.553,163.048"/>
<polygon fill="#0000ff" points="260.553,163.048 256.553,163.048 256.935,161.872"/>
<polygon fill="#0000ff" points="260.553,163.048 256.935,161.872 257.935,161.146"/>
<polygon fill="#0000ff" points="260.553,163.048 257.935,161.146 259.171,161.146"/>
<polygon fill="#0000ff" points="260.553,163.048 259.171,161.146 260.171,161.872"/>
<polygon fill="#0000ff" points="376.692,112.041 376.31,113.216 375.31,113.943"/>
<polygon fill="#0000ff" points="376.692,112.041 375.31,113.943 374.074,113.943"/>
<polygon fill="#0000ff" points="376.692,112.041 374.074,113.943 373.074,113.216"/>
<polygon fill="#0000ff" points="376.692,112.041 373.074,113.216 372.692,112.041"/>
<polygon fill="#0000ff" points="376.692,112.041 372.692,112.041 373.074,110.865"/>
<polygon fill="#0000ff" points="376.692,112.041 373.074,110.865 374.074,110.139"/>
<polygon fill="#0000ff" points="376.692,112.041 374.074,110.139 375.31,110.139"/>
<polygon fill="#0000ff" points="376.692,112.041 375.31,110.139 376.31,110.865"/>
<polygon fill="#0000ff" points="267.483,282.915 267.101,284.091 266.101,284.817"/>
<polygon fill="#0000ff" points="267.483,282.915 266.101,284.817 264.865,284.817"/>
<polygon fill="#0000ff" points="267.483,282.915 264.865,284.817 263.865,284.091"/>
<polygon fill="#0000ff" points="267.483,282.915 263.865,284.091 263.483,282.915"/>
<polygon fill="#0000ff" points="267.483,282.915 263.483,282.915 263.865,281.739"/>
<polygon fill="#0000ff" points="267.483,282.915 263.865,281.739 264.865,281.013"/>
<polygon fill="#0000ff" points="267.483,282.915 264.865,281.013 266.101,281.013"/>
<polygon fill="#0000ff" points="267.483,282.915 266.101,281.013 267.101,281.739"/>
<polygon fill="#0000ff" points="216.877,254.643 216.495,255.818 215.495,256.545"/>
<polygon fill="#0000ff" points="216.877,254.643 215.495,256.545 214.259,256.545"/>
<polygon fill="#0000ff" points="216.877,254.643 214.259,256.545 213.259,255.818"/>
<polygon fill="#0000ff" points="216.877,254.643 213.259,255.818 212.877,254.643"/>
<polygon fill="#0000ff" points="216.877,254.643 212.877,254.643 213.259,253.467"/>
<polygon fill="#0000ff" points="216.877,254.643 213.259,253.467 214.259,252.741"/>
<polygon fill="#0000ff" points="216.877,254.643 214.259,252.741 215.495,252.741"/>
<polygon fill="#0000ff" points="216.877,254.643 215.495,252.741 216.495,253.467"/>
<polygon fill="#0000ff" points="420.532,159.576 420.15,160.752 419.15,161.478"/>
<polygon fill="#0000ff" points="420.532,159.576 419.15,161.478 417.914,161.478"/>
<polygon fill="#0000ff" points="420.532,159.576 417.914,161.478 416.914,160.752"/>
<polygon fill="#0000ff" points="420.532,159.576 416.914,160.752 416.532,159.576"/>
<polygon fill="#0000ff" points="420.532,159.576 416.532,159.576 416.914,158.401"/>
<polygon fill="#0000ff" points="420.532,159.576 416.914,158.401 417.914,157.674"/>
<polygon fill="#0000ff" points="420.532,159.576 417.914,157.674 419.15,157.674"/>
<polygon fill="#0000ff" points="420.532,159.576 419.15,157.674 420.15,158.401"/>
<polygon fill="#0000ff" points="414.775,37.36 414.393,38.5356 413.393,39.2621"/>
<polygon fill="#0000ff" points="414.775,37.36 413.393,39.2621 412.157,39.2621"/>
<polygon fill="#0000ff" points="414.775,37.36 412.157,39.2621 411.157,38.5356"/>
<polygon fill="#0000ff" points="414.775,37.36 411.157,38.5356 410.775,37.36"/>
<polygon fill="#0000ff" points="414.775,37.36 410.775,37.36 411.157,36.1845"/>
<polygon fill="#0000ff" points="414.775,37.36 411.157,36.1845 412.157,35.4579"/>
<polygon fill="#0000ff" points="414.775,37.36 412.157,35.4579 413.393,35.4579"/>
<polygon fill="#0000ff" points="414.775,37.36 413.393,35.4579 414.393,36.1845"/>
<polygon fill="#0000ff" points="281.34,253.324 280.958,254.499 279.958,255.226"/>
<polygon fill="#0000ff" points="281.34,253.324 279.958,255.226 278.722,255.226"/>
<polygon fill="#0000ff" points="281.34,253.324 278.722,255.226 277.722,254.499"/>
<polygon fill="#0000ff" points="281.34,253.324 277.722,254.499 277.34,253.324"/>
<polygon fill="#0000ff" points="281.34,253.324 277.34,253.324 277.722,252.148"/>
<polygon fill="#0000ff" points="281.34,253.324 277.722,252.148 278.722,251.422"/>
<polygon fill="#0000ff" points="281.34,253.324 278.722,251.422 279.958,251.422"/>
<polygon fill="#0000ff" points="281.34,253.324 279.958,251.422 280.958,252.148"/>
<polygon fill="#0000ff" points="237.403,273.956 237.021,275.132 236.021,275.858"/>
<polygon fill="#0000ff" points="237.403,273.956 236.021,275.858 234.785,275.858"/>
<polygon fill="#0000ff" points="237.403,273.956 234.785,275.858 233.785,275.132"/>
<polygon fill="#0000ff" points="237.403,273.956 233.785,275.132 233.403,273.956"/>
<polygon fill="#0000ff" points="237.403,273.956 233.403,273.956 233.785,272.78"/>
<polygon fill="#0000ff" points="237.403,273.956 233.785,272.78 234.785,272.054"/>
<polygon fill="#0000ff" points="237.403,273.956 234.785,272.054 236.021,272.054"/>
<polygon fill="#0000ff" points="237.403,273.956 236.021,272.054 237.021,272.78"/>
<polygon fill="#0000ff" points="313.808,189.496 313.426,190.671 312.426,191.398"/>
<polygon fill="#0000ff" points="313.808,189.496 312.426,191.398 311.19,191.398"/>
<polygon fill="#0000ff" points="313.808,189.496 311.19,191.398 310.19,190.671"/>
<polygon fill="#0000ff" points="313.808,189.496 310.19,190.671 309.808,189.496"/>
<polygon fill="#0000ff" points="313.808,189.496 309.808,189.496 310.19,188.32"/>
<polygon fill="#0000ff" points="313.808,189.496 310.19,188.32 311.19,187.594"/>
<polygon fill="#0000ff" points="313.808,189.496 311.19,187.594 312.426,187.594"/>
<polygon fill="#0000ff" points="313.808,189.496 312.426,187.594 313.426,188.32"/>
<polygon fill="#0000ff" points="369.799,191.661 369.417,192.837 368.417,193.564"/>
<polygon fill="#0000ff" points="369.799,191.661 368.417,193.564 367.181,193.564"/>
<polygon fill="#0000ff" points="369.799,191.661 367.181,193.564 366.181,192.837"/>
<polygon fill="#0000ff" points="369.799,191.661 366.181,192.837 365.799,191.661"/>
<polygon fill="#0000ff" points="369.799,191.661 365.799,191.661 366.181,190.486"/>
<polygon fill="#0000ff" points="369.799,191.661 366.181,190.486 367.181,189.759"/>
<polygon fill="#0000ff" points="369.799,191.661 367.181,189.759 368.417,189.759"/>
<polygon fill="#0000ff" points="369.799,191.661 368.417,189.759 369.417,190.486"/>
<polygon fill="#0000ff" points="354.466,118.818 354.084,119.993 353.084,120.72"/>
<polygon fill="#0000ff" points="354.466,118.818 353.084,120.72 351.848,120.72"/>
<polygon fill="#0000ff" points="354.466,118.818 351.848,120.72 350.848,119.993"/>
<polygon fill="#0000ff" points="354.466,118.818 350.848,119.993 350.466,118.818"/>
<polygon fill="#0000ff" points="354.466,118.818 350.466,118.818 350.848,117.642"/>
<polygon fill="#0000ff" points="354.466,118.818 350.848,117.642 351.848,116.916"/>
<polygon fill="#0000ff" points="401.38,119.612 400.998,120.788 399.998,121.515"/>
<polygon fill="#0000ff" points="401.38,119.612 399.998,121.515 398.762,121.515"/>
<polygon fill="#0000ff" points="401.38,119.612 398.762,121.515 397.762,120.788"/>
<polygon fill="#0000ff" points="401.38,119.612 397.762,120.788 397.38,119.612"/>
<polygon fill="#0000ff" points="401.38,119.612 397.38,119.612 397.762,118.437"/>
<polygon fill="#0000ff" points="401.38,119.612 397.762,118.437 398.762,117.71"/>
<polygon fill="#0000ff" points="401.38,119.612 398.762,117.71 399.998,117.71"/>
<polygon fill="#0000ff" points="401.38,119.612 399.998,117.71 400.998,118.437"/>
<polygon fill="#0000ff" points="275.808,176.568 275.426,177.744 274.426,178.47"/>
<polygon fill="#0000ff" points="275.808,176.568 274.426,178.47 273.19,178.47"/>
<polygon fill="#0000ff" points="275.808,176.568 273.19,178.47 272.19,177.744"/>
<polygon fill="#0000ff" points="275.808,176.568 272.19,177.744 271.808,176.568"/>
<polygon fill="#0000ff" points="275.808,176.568 271.808,176.568 272.19,175.393"/>
<polygon fill="#0000ff" points="275.808,176.568 272.19,175.393 273.19,174.666"/>
<polygon fill="#0000ff" points="275.808,176.568 273.19,174.666 274.426,174.666"/>
<polygon fill="#0000ff" points="275.808,176.568 274.426,174.666 275.426,175.393"/>
<polygon fill="#0000ff" points="304.222,161.148 303.84,162.324 302.84,163.05"/>
<polygon fill="#0000ff" points="304.222,161.148 302.84,163.05 301.604,163.05"/>
<polygon fill="#0000ff" points="304.222,161.148 301.604,163.05 300.604,162.324"/>
<polygon fill="#0000ff" points="304.222,161.148 300.604,162.324 300.222,161.148"/>
<polygon fill="#0000ff" points="304.222,161.148 300.222,161.148 300.604,159.973"/>
<polygon fill="#0000ff" points="304.222,161.148 300.604,159.973 301.604,159.246"/>
<polygon fill="#0000ff" points="304.222,161.148 301.604,159.246 302.84,159.246"/>
<polygon fill="#0000ff" points="304.222,161.148 302.84,159.246 303.84,159.973"/>
<polygon fill="#0000ff" points="316.627,231.822 316.245,232.998 315.245,233.724"/>
<polygon fill="#0000ff" points="316.627,231.822 315.245,233.724 314.008,233.724"/>
<polygon fill="#0000ff" points="316.627,231.822 314.008,233.724 313.009,232.998"/>
<polygon fill="#0000ff" points="316.627,231.822 313.009,232.998 312.627,231.822"/>
<polygon fill="#0000ff" points="316.627,231.822 312.627,231.822 313.009,230.647"/>
<polygon fill="#0000ff" points="316.627,231.822 313.009,230.647 314.008,229.92"/>
<polygon fill="#0000ff" points="316.627,231.822 314.008,229.92 315.245,229.92"/>
<polygon fill="#0000ff" points="316.627,231.822 315.245,229.92 316.245,230.647"/>
<polygon fill="#0000ff" points="192.705,309.09 192.323,310.265 191.323,310.992"/>
<polygon fill="#0000ff" points="192.705,309.09 191.323,310.992 190.087,310.992"/>
<polygon fill="#0000ff" points="192.705,309.09 190.087,310.992 189.087,310.265"/>
<polygon fill="#0000ff" points="192.705,309.09 189.087,310.265 188.705,309.09"/>
<polygon fill="#0000ff" points="192.705,309.09 188.705,309.09 189.087,307.914"/>
<polygon fill="#0000ff" points="192.705,309.09 189.087,307.914 190.087,307.187"/>
<polygon fill="#0000ff" points="192.705,309.09 190.087,307.187 191.323,307.187"/>
<polygon fill="#0000ff" points="192.705,309.09 191.323,307.187 192.323,307.914"/>
<polygon fill="#0000ff" points="243.807,185.142 243.425,186.317 242.425,187.044"/>
<polygon fill="#0000ff" points="243.807,185.142 242.425,187.044 241.189,187.044"/>
<polygon fill="#0000ff" points="243.807,185.142 241.189,187.044 240.189,186.317"/>
<polygon fill="#0000ff" points="243.807,185.142 240.189,186.317 239.807,185.142"/>
<polygon fill="#0000ff" points="243.807,185.142 239.807,185.142 240.189,183.966"/>
<polygon fill="#0000ff" points="243.807,185.142 240.189,183.966 241.189,183.24"/>
<polygon fill="#0000ff" points="243.807,185.142 241.189,183.24 242.425,183.24"/>
<polygon fill="#0000ff" points="243.807,185.142 242.425,183.24 243.425,183.966"/>
<polygon fill="#0000ff" points="360.824,114.19 360.442,115.365 359.442,116.092"/>
<polygon fill="#0000ff" points="360.824,114.19 359.442,116.092 358.206,116.092"/>
<polygon fill="#0000ff" points="360.824,114.19 358.206,116.092 357.206,115.365"/>
<polygon fill="#0000ff" points="360.824,114.19 357.206,115.365 356.824,114.19"/>
<polygon fill="#0000ff" points="360.824,114.19 356.824,114.19 357.206,113.014"/>
<polygon fill="#0000ff" points="360.824,114.19 357.206,113.014 358.206,112.288"/>
<polygon fill="#0000ff" points="360.824,114.19 358.206,112.288 359.442,112.288"/>
<polygon fill="#0000ff" points="360.824,114.19 359.442,112.288 360.442,113.014"/>
<polygon fill="#0000ff" points="355.913,194.061 355.531,195.236 354.531,195.963"/>
<polygon fill="#0000ff" points="355.913,194.061 354.531,195.963 353.295,195.963"/>
<polygon fill="#0000ff" points="355.913,194.061 353.295,195.963 352.295,195.236"/>
<polygon fill="#0000ff" points="355.913,194.061 352.295,195.236 351.913,194.061"/>
<polygon fill="#0000ff" points="355.913,194.061 351.913,194.061 352.295,192.885"/>
<polygon fill="#0000ff" points="355.913,194.061 352.295,192.885 353.295,192.158"/>
<polygon fill="#0000ff" points="355.913,194.061 353.295,192.158 354.531,192.158"/>
<polygon fill="#0000ff" points="355.913,194.061 354.531,192.158 355.531,192.885"/>
<polygon fill="#0000ff" points="266.158,220.452 265.776,221.628 264.776,222.355"/>
<polygon fill="#0000ff" points="266.158,220.452 264.776,222.355 263.54,222.355"/>
<polygon fill="#0000ff" points="266.158,220.452 263.54,222.355 262.54,221.628"/>
<polygon fill="#0000ff" points="266.158,220.452 262.54,221.628 262.158,220.452"/>
<polygon fill="#0000ff" points="266.158,220.452 262.158,220.452 262.54,219.277"/>
<polygon fill="#0000ff" points="266.158,220.452 262.54,219.277 263.54,218.55"/>
<polygon fill="#0000ff" points="266.158,220.452 263.54,218.55 264.776,218.55"/>
<polygon fill="#0000ff" points="266.158,220.452 264.776,218.55 265.776,219.277"/>
<polygon fill="#0000ff" points="388.588,181.089 388.206,182.264 387.206,182.991"/>
<polygon fill="#0000ff" points="388.588,181.089 387.206,182.991 385.97,182.991"/>
<polygon fill="#0000ff" points="388.588,181.089 385.97,182.991 384.97,182.264"/>
<polygon fill="#0000ff" points="388.588,181.089 384.97,182.264 384.588,181.089"/>
<polygon fill="#0000ff" points="388.588,181.089 384.588,181.089 384.97,179.913"/>
<polygon fill="#0000ff" points="388.588,181.089 384.97,179.913 385.97,179.187"/>
<polygon fill="#0000ff" points="388.588,181.089 385.97,179.187 387.206,179.187"/>
<polygon fill="#0000ff" points="388.588,181.089 387.206,179.187 388.206,179.913"/>
<polygon fill="#0000ff" points="174.298,276.322 173.916,277.498 172.916,278.225"/>
<polygon fill="#0000ff" points="174.298,276.322 172.916,278.225 171.68,278.225"/>
<polygon fill="#0000ff" points="174.298,276.322 171.68,278.225 170.68,277.498"/>
<polygon fill="#0000ff" points="174.298,276.322 170.68,277.498 170.298,276.322"/>
<polygon fill="#0000ff" points="174.298,276.322 170.298,276.322 170.68,275.147"/>
<polygon fill="#0000ff" points="174.298,276.322 170.68,275.147 171.68,274.42"/>
<polygon fill="#0000ff" points="174.298,276.322 171.68,274.42 172.916,274.42"/>
<polygon fill="#0000ff" points="174.298,276.322 172.916,274.42 173.916,275.147"/>
<polygon fill="#0000ff" points="199.164,236.168 198.782,237.343 197.782,238.07"/>
<polygon fill="#0000ff" points="199.164,236.168 197.782,238.07 196.546,238.07"/>
<polygon fill="#0000ff" points="199.164,236.168 196.546,238.07 195.546,237.343"/>
<polygon fill="#0000ff" points="199.164,236.168 195.546,237.343 195.164,236.168"/>
<polygon fill="#0000ff" points="199.164,236.168 195.164,236.168 195.546,234.992"/>
<polygon fill="#0000ff" points="199.164,236.168 195.546,234.992 196.546,234.266"/>
<polygon fill="#0000ff" points="199.164,236.168 196.546,234.266 197.782,234.266"/>
<polygon fill="#0000ff" points="199.164,236.168 197.782,234.266 198.782,234.992"/>
<polygon fill="#0000ff" points="208.387,240.795 208.005,241.971 207.005,242.697"/>
<polygon fill="#0000ff" points="208.387,240.795 207.005,242.697 205.769,242.697"/>
<polygon fill="#0000ff" points="208.387,240.795 205.769,242.697 204.769,241.971"/>
<polygon fill="#0000ff" points="208.387,240.795 204.769,241.971 204.387,240.795"/>
<polygon fill="#0000ff" points="208.387,240.795 204.387,240.795 204.769,239.62"/>
<polygon fill="#0000ff" points="208.387,240.795 204.769,239.62 205.769,238.893"/>
<polygon fill="#0000ff" points="208.387,240.795 205.769,238.893 207.005,238.893"/>
<polygon fill="#0000ff" points="208.387,240.795 207.005,238.893 208.005,239.62"/>
<polygon fill="#0000ff" points="259.574,269.41 259.192,270.585 258.192,271.312"/>
<polygon fill="#0000ff" points="259.574,269.41 258.192,271.312 256.956,271.312"/>
<polygon fill="#0000ff" points="259.574,269.41 256.956,271.312 255.956,270.585"/>
<polygon fill="#0000ff" points="259.574,269.41 255.956,270.585 255.574,269.41"/>
<polygon fill="#0000ff" points="259.574,269.41 255.574,269.41 255.956,268.234"/>
<polygon fill="#0000ff" points="259.574,269.41 255.956,268.234 256.956,267.508"/>
<polygon fill="#0000ff" points="259.574,269.41 256.956,267.508 258.192,267.508"/>
<polygon fill="#0000ff" points="259.574,269.41 258.192,267.508 259.192,268.234"/>
<polygon fill="#0000ff" points="250.368,248.683 249.986,249.859 248.986,250.585"/>
<polygon fill="#0000ff" points="250.368,248.683 248.986,250.585 247.75,250.585"/>
<polygon fill="#0000ff" points="250.368,248.683 247.75,250.585 246.75,249.859"/>
<polygon fill="#0000ff" points="250.368,248.683 246.75,249.859 246.368,248.683"/>
<polygon fill="#0000ff" points="250.368,248.683 246.368,248.683 246.75,247.508"/>
<polygon fill="#0000ff" points="250.368,248.683 246.75,247.508 247.75,246.781"/>
<polygon fill="#0000ff" points="250.368,248.683 247.75,246.781 248.986,246.781"/>
<polygon fill="#0000ff" points="250.368,248.683 248.986,246.781 249.986,247.508"/>
<polygon fill="#0000ff" points="300.624,163.001 300.242,164.176 299.242,164.903"/>
<polygon fill="#0000ff" points="300.624,163.001 299.242,164.903 298.006,164.903"/>
<polygon fill="#0000ff" points="300.624,163.001 298.006,164.903 297.006,164.176"/>
<polygon fill="#0000ff" points="300.624,163.001 297.006,164.176 296.624,163.001"/>
<polygon fill="#0000ff" points="300.624,163.001 296.624,163.001 297.006,161.825"/>
<polygon fill="#0000ff" points="300.624,163.001 297.006,161.825 298.006,161.099"/>
<polygon fill="#0000ff" points="300.624,163.001 298.006,161.099 299.242,161.099"/>
<polygon fill="#0000ff" points="300.624,163.001 299.242,161.099 300.242,161.825"/>
<polygon fill="#0000ff" points="254.477,238.632 254.095,239.807 253.095,240.534"/>
<polygon fill="#0000ff" points="254.477,238.632 253.095,240.534 251.859,240.534"/>
<polygon fill="#0000ff" points="254.477,238.632 251.859,240.534 250.859,239.807"/>
<polygon fill="#0000ff" points="254.477,238.632 250.859,239.807 250.477,238.632"/>
<polygon fill="#0000ff" points="254.477,238.632 250.477,238.632 250.859,237.456"/>
<polygon fill="#0000ff" points="254.477,238.632 250.859,237.456 251.859,236.73"/>
<polygon fill="#0000ff" points="254.477,238.632 251.859,236.73 253.095,236.73"/>
<polygon fill="#0000ff" points="254.477,238.632 253.095,236.73 254.095,237.456"/>
<polygon fill="#0000ff" points="396.781,49.1444 396.399,50.3199 395.399,51.0465"/>
<polygon fill="#0000ff" points="396.781,49.1444 395.399,51.0465 394.163,51.0465"/>
<polygon fill="#0000ff" points="396.781,49.1444 394.163,51.0465 393.163,50.3199"/>
<polygon fill="#0000ff" points="396.781,49.1444 393.163,50.3199 392.781,49.1444"/>
<polygon fill="#0000ff" points="396.781,49.1444 392.781,49.1444 393.163,47.9688"/>
<polygon fill="#0000ff" points="396.781,49.1444 393.163,47.9688 394.163,47.2423"/>
<polygon fill="#0000ff" points="396.781,49.1444 394.163,47.2423 395.399,47.2423"/>
<polygon fill="#0000ff" points="396.781,49.1444 395.399,47.2423 396.399,47.9688"/>
<polygon fill="#0000ff" points="171.138,294.451 170.756,295.627 169.756,296.353"/>
<polygon fill="#0000ff" points="171.138,294.451 169.756,296.353 168.52,296.353"/>
<polygon fill="#0000ff" points="171.138,294.451 168.52,296.353 167.52,295.627"/>
<polygon fill="#0000ff" points="171.138,294.451 167.52,295.627 167.138,294.451"/>
<polygon fill="#0000ff" points="171.138,294.451 167.138,294.451 167.52,293.276"/>
<polygon fill="#0000ff" points="171.138,294.451 167.52,293.276 168.52,292.549"/>
<polygon fill="#0000ff" points="171.138,294.451 168.52,292.549 169.756,292.549"/>
<polygon fill="#0000ff" points="171.138,294.451 169.756,292.549 170.756,293.276"/>
<polygon fill="#0000ff" points="226.922,264.477 226.54,265.652 225.54,266.379"/>
<polygon fill="#0000ff" points="226.922,264.477 225.54,266.379 224.304,266.379"/>
<polygon fill="#0000ff" points="226.922,264.477 224.304,266.379 223.304,265.652"/>
<polygon fill="#0000ff" points="226.922,264.477 223.304,265.652 222.922,264.477"/>
<polygon fill="#0000ff" points="226.922,264.477 222.922,264.477 223.304,263.301"/>
<polygon fill="#0000ff" points="226.922,264.477 223.304,263.301 224.304,262.575"/>
<polygon fill="#0000ff" points="226.922,264.477 224.304,262.575 225.54,262.575"/>
<polygon fill="#0000ff" points="226.922,264.477 225.54,262.575 226.54,263.301"/>
<polygon fill="#0000ff" points="326.679,145.085 326.297,146.261 325.297,146.987"/>
<polygon fill="#0000ff" points="326.679,145.085 325.297,146.987 324.061,146.987"/>
<polygon fill="#0000ff" points="326.679,145.085 324.061,146.987 323.061,146.261"/>
<polygon fill="#0000ff" points="326.679,145.085 323.061,146.261 322.679,145.085"/>
<polygon fill="#0000ff" points="326.679,145.085 322.679,145.085 323.061,143.91"/>
<polygon fill="#0000ff" points="326.679,145.085 323.061,143.91 324.061,143.183"/>
<polygon fill="#0000ff" points="326.679,145.085 324.061,143.183 325.297,143.183"/>
<polygon fill="#0000ff" points="326.679,145.085 325.297,143.183 326.297,143.91"/>
<polygon fill="#0000ff" points="180.03,269.26 179.648,270.436 178.648,271.162"/>
<polygon fill="#0000ff" points="180.03,269.26 178.648,271.162 177.412,271.162"/>
<polygon fill="#0000ff" points="180.03,269.26 177.412,271.162 176.412,270.436"/>
<polygon fill="#0000ff" points="180.03,269.26 176.412,270.436 176.03,269.26"/>
<polygon fill="#0000ff" points="180.03,269.26 176.03,269.26 176.412,268.085"/>
<polygon fill="#0000ff" points="180.03,269.26 176.412,268.085 177.412,267.358"/>
<polygon fill="#0000ff" points="180.03,269.26 177.412,267.358 178.648,267.358"/>
<polygon fill="#0000ff" points="180.03,269.26 178.648,267.358 179.648,268.085"/>
<polygon fill="#0000ff" points="409.501,125.433 409.119,126.609 408.119,127.335"/>
<polygon fill="#0000ff" points="409.501,125.433 408.119,127.335 406.883,127.335"/>
<polygon fill="#0000ff" points="409.501,125.433 406.883,127.335 405.883,126.609"/>
<polygon fill="#0000ff" points="409.501,125.433 405.883,126.609 405.501,125.433"/>
<polygon fill="#0000ff" points="409.501,125.433 405.501,125.433 405.883,124.258"/>
<polygon fill="#0000ff" points="409.501,125.433 405.883,124.258 406.883,123.531"/>
<polygon fill="#0000ff" points="409.501,125.433 406.883,123.531 408.119,123.531"/>
<polygon fill="#0000ff" points="409.501,125.433 408.119,123.531 409.119,124.258"/>
<polygon fill="#0000ff" points="211.691,172.647 211.31,173.822 210.31,174.549"/>
<polygon fill="#0000ff" points="211.691,172.647 210.31,174.549 209.073,174.549"/>
<polygon fill="#0000ff" points="211.691,172.647 209.073,174.549 208.073,173.822"/>
<polygon fill="#0000ff" points="211.691,172.647 208.073,173.822 207.691,172.647"/>
<polygon fill="#0000ff" points="211.691,172.647 207.691,172.647 208.073,171.471"/>
<polygon fill="#0000ff" points="211.691,172.647 208.073,171.471 209.073,170.744"/>
<polygon fill="#0000ff" points="211.691,172.647 209.073,170.744 210.31,170.744"/>
<polygon fill="#0000ff" points="211.691,172.647 210.31,170.744 211.31,171.471"/>
<polygon fill="#0000ff" points="259.179,225.686 258.797,226.861 257.797,227.588"/>
<polygon fill="#0000ff" points="259.179,225.686 257.797,227.588 256.561,227.588"/>
<polygon fill="#0000ff" points="259.179,225.686 256.561,227.588 255.561,226.861"/>
<polygon fill="#0000ff" points="259.179,225.686 255.561,226.861 255.179,225.686"/>
<polygon fill="#0000ff" points="259.179,225.686 255.179,225.686 255.561,224.51"/>
<polygon fill="#0000ff" points="259.179,225.686 255.561,224.51 256.561,223.784"/>
<polygon fill="#0000ff" points="259.179,225.686 256.561,223.784 257.797,223.784"/>
<polygon fill="#0000ff" points="259.179,225.686 257.797,223.784 258.797,224.51"/>
<polygon fill="#0000ff" points="230.141,224.064 229.759,225.24 228.759,225.966"/>
<polygon fill="#0000ff" points="230.141,224.064 228.759,225.966 227.523,225.966"/>
<polygon fill="#0000ff" points="230.141,224.064 227.523,225.966 226.523,225.24"/>
<polygon fill="#0000ff" points="230.141,224.064 226.523,225.24 226.141,224.064"/>
<polygon fill="#0000ff" points="230.141,224.064 226.141,224.064 226.523,222.889"/>
<polygon fill="#0000ff" points="230.141,224.064 226.523,222.889 227.523,222.162"/>
<polygon fill="#0000ff" points="230.141,224.064 227.523,222.162 228.759,222.162"/>
<polygon fill="#0000ff" points="230.141,224.064 228.759,222.162 229.759,222.889"/>
<polygon fill="#0000ff" points="238.482,225.055 238.1,226.231 237.1,226.957"/>
<polygon fill="#0000ff" points="238.482,225.055 237.1,226.957 235.864,226.957"/>
<polygon fill="#0000ff" points="238.482,225.055 235.864,226.957 234.864,226.231"/>
<polygon fill="#0000ff" points="238.482,225.055 234.864,226.231 234.482,225.055"/>
<polygon fill="#0000ff" points="238.482,225.055 234.482,225.055 234.864,223.879"/>
<polygon fill="#0000ff" points="238.482,225.055 234.864,223.879 235.864,223.153"/>
<polygon fill="#0000ff" points="238.482,225.055 235.864,223.153 237.1,223.153"/>
<polygon fill="#0000ff" points="238.482,225.055 237.1,223.153 238.1,223.879"/>
<polygon fill="#0000ff" points="308.179,196.347 307.797,197.523 306.797,198.249"/>
<polygon fill="#0000ff" points="308.179,196.347 306.797,198.249 305.561,198.249"/>
<polygon fill="#0000ff" points="308.179,196.347 305.561,198.249 304.561,197.523"/>
<polygon fill="#0000ff" points="308.179,196.347 304.561,197.523 304.179,196.347"/>
<polygon fill="#0000ff" points="308.179,196.347 304.179,196.347 304.561,195.172"/>
<polygon fill="#0000ff" points="308.179,196.347 304.561,195.172 305.561,194.445"/>
<polygon fill="#0000ff" points="308.179,196.347 305.561,194.445 306.797,194.445"/>
<polygon fill="#0000ff" points="308.179,196.347 306.797,194.445 307.797,195.172"/>
<polygon fill="#0000ff" points="337.861,204.427 337.479,205.603 336.479,206.329"/>
<polygon fill="#0000ff" points="337.861,204.427 336.479,206.329 335.243,206.329"/>
<polygon fill="#0000ff" points="337.861,204.427 335.243,206.329 334.243,205.603"/>
<polygon fill="#0000ff" points="337.861,204.427 334.243,205.603 333.861,204.427"/>
<polygon fill="#0000ff" points="337.861,204.427 333.861,204.427 334.243,203.252"/>
<polygon fill="#0000ff" points="337.861,204.427 334.243,203.252 335.243,202.525"/>
<polygon fill="#0000ff" points="337.861,204.427 335.243,202.525 336.479,202.525"/>
<polygon fill="#0000ff" points="337.861,204.427 336.479,202.525 337.479,203.252"/>
<polygon fill="#0000ff" points="235.93,176.391 235.548,177.566 234.548,178.293"/>
<polygon fill="#0000ff" points="235.93,176.391 234.548,178.293 233.312,178.293"/>
<polygon fill="#0000ff" points="235.93,176.391 233.312,178.293 232.312,177.566"/>
<polygon fill="#0000ff" points="235.93,176.391 232.312,177.566 231.93,176.391"/>
<polygon fill="#0000ff" points="235.93,176.391 231.93,176.391 232.312,175.215"/>
<polygon fill="#0000ff" points="235.93,176.391 232.312,175.215 233.312,174.489"/>
<polygon fill="#0000ff" points="235.93,176.391 233.312,174.489 234.548,174.489"/>
<polygon fill="#0000ff" points="235.93,176.391 234.548,174.489 235.548,175.215"/>
<polygon fill="#0000ff" points="393.041,150.274 392.659,151.45 391.659,152.177"/>
<polygon fill="#0000ff" points="393.041,150.274 391.659,152.177 390.423,152.177"/>
<polygon fill="#0000ff" points="393.041,150.274 390.423,152.177 389.423,151.45"/>
<polygon fill="#0000ff" points="393.041,150.274 389.423,151.45 389.041,150.274"/>
<polygon fill="#0000ff" points="393.041,150.274 389.041,150.274 389.423,149.099"/>
<polygon fill="#0000ff" points="393.041,150.274 389.423,149.099 390.423,148.372"/>
<polygon fill="#0000ff" points="393.041,150.274 390.423,148.372 391.659,148.372"/>
<polygon fill="#0000ff" points="393.041,150.274 391.659,148.372 392.659,149.099"/>
<polygon fill="#0000ff" points="294.157,156.534 293.775,157.709 292.775,158.436"/>
<polygon fill="#0000ff" points="294.157,156.534 292.775,158.436 291.539,158.436"/>
<polygon fill="#0000ff" points="294.157,156.534 291.539,158.436 290.539,157.709"/>
<polygon fill="#0000ff" points="294.157,156.534 290.539,157.709 290.157,156.534"/>
<polygon fill="#0000ff" points="294.157,156.534 290.157,156.534 290.539,155.358"/>
<polygon fill="#0000ff" points="294.157,156.534 290.539,155.358 291.539,154.632"/>
<polygon fill="#0000ff" points="294.157,156.534 291.539,154.632 292.775,154.632"/>
<polygon fill="#0000ff" points="294.157,156.534 292.775,154.632 293.775,155.358"/>
<polygon fill="#0000ff" points="233.884,245.905 233.502,247.081 232.502,247.807"/>
<polygon fill="#0000ff" points="233.884,245.905 232.502,247.807 231.266,247.807"/>
<polygon fill="#0000ff" points="233.884,245.905 231.266,247.807 230.266,247.081"/>
<polygon fill="#0000ff" points="233.884,245.905 230.266,247.081 229.884,245.905"/>
<polygon fill="#0000ff" points="233.884,245.905 229.884,245.905 230.266,244.73"/>
<polygon fill="#0000ff" points="233.884,245.905 230.266,244.73 231.266,244.003"/>
<polygon fill="#0000ff" points="233.884,245.905 231.266,244.003 232.502,244.003"/>
<polygon fill="#0000ff" points="233.884,245.905 232.502,244.003 233.502,244.73"/>
<polygon fill="#0000ff" points="234.474,237.719 234.092,238.894 233.092,239.621"/>
<polygon fill="#0000ff" points="234.474,237.719 233.092,239.621 231.856,239.621"/>
<polygon fill="#0000ff" points="234.474,237.719 231.856,239.621 230.856,238.894"/>
<polygon fill="#0000ff" points="234.474,237.719 230.856,238.894 230.474,237.719"/>
<polygon fill="#0000ff" points="234.474,237.719 230.474,237.719 230.856,236.543"/>
<polygon fill="#0000ff" points="234.474,237.719 230.856,236.543 231.856,235.817"/>
<polygon fill="#0000ff" points="234.474,237.719 231.856,235.817 233.092,235.817"/>
<polygon fill="#0000ff" points="234.474,237.719 233.092,235.817 234.092,236.543"/>
<polygon fill="#0000ff" points="301.467,208.977 298.849,210.879 297.849,210.152"/>
<polygon fill="#0000ff" points="301.467,208.977 297.849,210.152 297.467,208.977"/>
<polygon fill="#0000ff" points="301.467,208.977 297.467,208.977 297.849,207.801"/>
<polygon fill="#0000ff" points="301.467,208.977 297.849,207.801 298.849,207.074"/>
<polygon fill="#0000ff" points="301.467,208.977 298.849,207.074 300.085,207.074"/>
<polygon fill="#0000ff" points="301.467,208.977 300.085,207.074 301.085,207.801"/>
<polygon fill="#0000ff" points="317.776,151.761 317.394,152.937 316.394,153.663"/>
<polygon fill="#0000ff" points="317.776,151.761 316.394,153.663 315.158,153.663"/>
<polygon fill="#0000ff" points="317.776,151.761 315.158,153.663 314.158,152.937"/>
<polygon fill="#0000ff" points="317.776,151.761 314.158,152.937 313.776,151.761"/>
<polygon fill="#0000ff" points="317.776,151.761 313.776,151.761 314.158,150.586"/>
<polygon fill="#0000ff" points="317.776,151.761 314.158,150.586 315.158,149.859"/>
<polygon fill="#0000ff" points="317.776,151.761 315.158,149.859 316.394,149.859"/>
<polygon fill="#0000ff" points="317.776,151.761 316.394,149.859 317.394,150.586"/>
<polygon fill="#0000ff" points="301.088,246.786 300.706,247.961 299.706,248.688"/>
<polygon fill="#0000ff" points="301.088,246.786 299.706,248.688 298.47,248.688"/>
<polygon fill="#0000ff" points="301.088,246.786 298.47,248.688 297.47,247.961"/>
<polygon fill="#0000ff" points="301.088,246.786 297.47,247.961 297.088,246.786"/>
<polygon fill="#0000ff" points="301.088,246.786 297.088,246.786 297.47,245.61"/>
<polygon fill="#0000ff" points="301.088,246.786 297.47,245.61 298.47,244.883"/>
<polygon fill="#0000ff" points="301.088,246.786 298.47,244.883 299.706,244.883"/>
<polygon fill="#0000ff" points="301.088,246.786 299.706,244.883 300.706,245.61"/>
<polygon fill="#0000ff" points="178.397,208.793 178.015,209.969 177.015,210.695"/>
<polygon fill="#0000ff" points="178.397,208.793 177.015,210.695 175.779,210.695"/>
<polygon fill="#0000ff" points="178.397,208.793 175.779,210.695 174.779,209.969"/>
<polygon fill="#0000ff" points="178.397,208.793 174.779,209.969 174.397,208.793"/>
<polygon fill="#0000ff" points="178.397,208.793 174.397,208.793 174.779,207.618"/>
<polygon fill="#0000ff" points="178.397,208.793 174.779,207.618 175.779,206.891"/>
<polygon fill="#0000ff" points="178.397,208.793 175.779,206.891 177.015,206.891"/>
<polygon fill="#0000ff" points="178.397,208.793 177.015,206.891 178.015,207.618"/>
<polygon fill="#0000ff" points="222.391,296.944 222.009,298.12 221.009,298.846"/>
<polygon fill="#0000ff" points="222.391,296.944 221.009,298.846 219.773,298.846"/>
<polygon fill="#0000ff" points="222.391,296.944 219.773,298.846 218.773,298.12"/>
<polygon fill="#0000ff" points="222.391,296.944 218.773,298.12 218.391,296.944"/>
<polygon fill="#0000ff" points="222.391,296.944 218.391,296.944 218.773,295.769"/>
<polygon fill="#0000ff" points="222.391,296.944 218.773,295.769 219.773,295.042"/>
<polygon fill="#0000ff" points="222.391,296.944 219.773,295.042 221.009,295.042"/>
<polygon fill="#0000ff" points="222.391,296.944 221.009,295.042 222.009,295.769"/>
<polygon fill="#0000ff" points="345.69,153.874 345.308,155.05 344.308,155.777"/>
<polygon fill="#0000ff" points="345.69,153.874 344.308,155.777 343.072,155.777"/>
<polygon fill="#0000ff" points="345.69,153.874 343.072,155.777 342.072,155.05"/>
<polygon fill="#0000ff" points="345.69,153.874 342.072,155.05 341.69,153.874"/>
<polygon fill="#0000ff" points="345.69,153.874 341.69,153.874 342.072,152.699"/>
<polygon fill="#0000ff" points="345.69,153.874 342.072,152.699 343.072,151.972"/>
<polygon fill="#0000ff" points="345.69,153.874 343.072,151.972 344.308,151.972"/>
<polygon fill="#0000ff" points="345.69,153.874 344.308,151.972 345.308,152.699"/>
<polygon fill="#0000ff" points="354.854,118.53 354.472,119.706 353.472,120.433"/>
<polygon fill="#0000ff" points="354.854,118.53 353.472,120.433 352.236,120.433"/>
<polygon fill="#0000ff" points="354.854,118.53 352.236,120.433 351.236,119.706"/>
<polygon fill="#0000ff" points="354.854,118.53 351.236,119.706 350.854,118.53"/>
<polygon fill="#0000ff" points="354.854,118.53 350.854,118.53 351.236,117.355"/>
<polygon fill="#0000ff" points="354.854,118.53 351.236,117.355 352.236,116.628"/>
<polygon fill="#0000ff" points="354.854,118.53 352.236,116.628 353.472,116.628"/>
<polygon fill="#0000ff" points="354.854,118.53 353.472,116.628 354.472,117.355"/>
<polygon fill="#0000ff" points="376.483,207.553 376.101,208.729 375.101,209.455"/>
<polygon fill="#0000ff" points="376.483,207.553 375.101,209.455 373.865,209.455"/>
<polygon fill="#0000ff" points="376.483,207.553 373.865,209.455 372.865,208.729"/>
<polygon fill="#0000ff" points="376.483,207.553 372.865,208.729 372.483,207.553"/>
<polygon fill="#0000ff" points="376.483,207.553 372.483,207.553 372.865,206.377"/>
<polygon fill="#0000ff" points="376.483,207.553 372.865,206.377 373.865,205.651"/>
<polygon fill="#0000ff" points="376.483,207.553 373.865,205.651 375.101,205.651"/>
<polygon fill="#0000ff" points="376.483,207.553 375.101,205.651 376.101,206.377"/>
<polygon fill="#0000ff" points="193.525,269.273 193.143,270.449 192.143,271.175"/>
<polygon fill="#0000ff" points="193.525,269.273 192.143,271.175 190.907,271.175"/>
<polygon fill="#0000ff" points="193.525,269.273 190.907,271.175 189.907,270.449"/>
<polygon fill="#0000ff" points="193.525,269.273 189.907,270.449 189.525,269.273"/>
<polygon fill="#0000ff" points="193.525,269.273 189.525,269.273 189.907,268.098"/>
<polygon fill="#0000ff" points="193.525,269.273 189.907,268.098 190.907,267.371"/>
<polygon fill="#0000ff" points="193.525,269.273 190.907,267.371 192.143,267.371"/>
<polygon fill="#0000ff" points="193.525,269.273 192.143,267.371 193.143,268.098"/>
<polygon fill="#0000ff" points="163.096,277.473 162.714,278.649 161.714,279.376"/>
<polygon fill="#0000ff" points="163.096,277.473 161.714,279.376 160.478,279.376"/>
<polygon fill="#0000ff" points="163.096,277.473 160.478,279.376 159.478,278.649"/>
<polygon fill="#0000ff" points="163.096,277.473 159.478,278.649 159.096,277.473"/>
<polygon fill="#0000ff" points="163.096,277.473 159.096,277.473 159.478,276.298"/>
<polygon fill="#0000ff" points="163.096,277.473 159.478,276.298 160.478,275.571"/>
<polygon fill="#0000ff" points="163.096,277.473 160.478,275.571 161.714,275.571"/>
<polygon fill="#0000ff" points="163.096,277.473 161.714,275.571 162.714,276.298"/>
<polygon fill="#0000ff" points="327.317,230.824 326.935,231.999 325.935,232.726"/>
<polygon fill="#0000ff" points="327.317,230.824 325.935,232.726 324.699,232.726"/>
<polygon fill="#0000ff" points="327.317,230.824 324.699,232.726 323.699,231.999"/>
<polygon fill="#0000ff" points="327.317,230.824 323.699,231.999 323.317,230.824"/>
<polygon fill="#0000ff" points="327.317,230.824 323.317,230.824 323.699,229.648"/>
<polygon fill="#0000ff" points="327.317,230.824 323.699,229.648 324.699,228.922"/>
<polygon fill="#0000ff" points="327.317,230.824 324.699,228.922 325.935,228.922"/>
<polygon fill="#0000ff" points="327.317,230.824 325.935,228.922 326.935,229.648"/>
<polygon fill="#0000ff" points="275.396,200.528 275.014,201.703 274.014,202.43"/>
<polygon fill="#0000ff" points="275.396,200.528 274.014,202.43 272.778,202.43"/>
<polygon fill="#0000ff" points="275.396,200.528 272.778,202.43 271.778,201.703"/>
<polygon fill="#0000ff" points="275.396,200.528 271.778,201.703 271.396,200.528"/>
<polygon fill="#0000ff" points="275.396,200.528 271.396,200.528 271.778,199.352"/>
<polygon fill="#0000ff" points="275.396,200.528 271.778,199.352 272.778,198.626"/>
<polygon fill="#0000ff" points="275.396,200.528 272.778,198.626 274.014,198.626"/>
<polygon fill="#0000ff" points="275.396,200.528 274.014,198.626 275.014,199.352"/>
<polygon fill="#0000ff" points="248.802,251.35 248.42,252.525 247.42,253.252"/>
<polygon fill="#0000ff" points="248.802,251.35 247.42,253.252 246.184,253.252"/>
<polygon fill="#0000ff" points="248.802,251.35 246.184,253.252 245.184,252.525"/>
<polygon fill="#0000ff" points="248.802,251.35 245.184,252.525 244.802,251.35"/>
<polygon fill="#0000ff" points="248.802,251.35 244.802,251.35 245.184,250.174"/>
<polygon fill="#0000ff" points="248.802,251.35 245.184,250.174 246.184,249.448"/>
<polygon fill="#0000ff" points="248.802,251.35 246.184,249.448 247.42,249.448"/>
<polygon fill="#0000ff" points="248.802,251.35 247.42,249.448 248.42,250.174"/>
<polygon fill="#0000ff" points="451.455,87.8276 451.073,89.0032 450.073,89.7297"/>
<polygon fill="#0000ff" points="451.455,87.8276 450.073,89.7297 448.837,89.7297"/>
<polygon fill="#0000ff" points="451.455,87.8276 448.837,89.7297 447.837,89.0032"/>
<polygon fill="#0000ff" points="451.455,87.8276 447.837,89.0032 447.455,87.8276"/>
<polygon fill="#0000ff" points="451.455,87.8276 447.455,87.8276 447.837,86.652"/>
<polygon fill="#0000ff" points="451.455,87.8276 447.837,86.652 448.837,85.9255"/>
<polygon fill="#0000ff" points="451.455,87.8276 448.837,85.9255 450.073,85.9255"/>
<polygon fill="#0000ff" points="451.455,87.8276 450.073,85.9255 451.073,86.652"/>
<polygon fill="#0000ff" points="259.107,149.847 258.725,151.022 257.725,151.749"/>
<polygon fill="#0000ff" points="259.107,149.847 257.725,151.749 256.489,151.749"/>
<polygon fill="#0000ff" points="259.107,149.847 256.489,151.749 255.489,151.022"/>
<polygon fill="#0000ff" points="259.107,149.847 255.489,151.022 255.107,149.847"/>
<polygon fill="#0000ff" points="259.107,149.847 255.107,149.847 255.489,148.671"/>
<polygon fill="#0000ff" points="259.107,149.847 255.489,148.671 256.489,147.945"/>
<polygon fill="#0000ff" points="259.107,149.847 256.489,147.945 257.725,147.945"/>
<polygon fill="#0000ff" points="259.107,149.847 257.725,147.945 258.725,148.671"/>
<polygon fill="#0000ff" points="355.914,132.789 355.532,133.965 354.532,134.691"/>
<polygon fill="#0000ff" points="355.914,132.789 354.532,134.691 353.296,134.691"/>
<polygon fill="#0000ff" points="355.914,132.789 353.296,134.691 352.296,133.965"/>
<polygon fill="#0000ff" points="355.914,132.789 352.296,133.965 351.914,132.789"/>
<polygon fill="#0000ff" points="355.914,132.789 351.914,132.789 352.296,131.614"/>
<polygon fill="#0000ff" points="355.914,132.789 352.296,131.614 353.296,130.887"/>
<polygon fill="#0000ff" points="355.914,132.789 353.296,130.887 354.532,130.887"/>
<polygon fill="#0000ff" points="355.914,132.789 354.532,130.887 355.532,131.614"/>
<polygon fill="#0000ff" points="202.84,260.436 202.458,261.612 201.458,262.339"/>
<polygon fill="#0000ff" points="202.84,260.436 201.458,262.339 200.222,262.339"/>
<polygon fill="#0000ff" points="202.84,260.436 200.222,262.339 199.222,261.612"/>
<polygon fill="#0000ff" points="202.84,260.436 199.222,261.612 198.84,260.436"/>
<polygon fill="#0000ff" points="202.84,260.436 198.84,260.436 199.222,259.261"/>
<polygon fill="#0000ff" points="202.84,260.436 199.222,259.261 200.222,258.534"/>
<polygon fill="#0000ff" points="202.84,260.436 200.222,258.534 201.458,258.534"/>
<polygon fill="#0000ff" points="202.84,260.436 201.458,258.534 202.458,259.261"/>
<polygon fill="#0000ff" points="343.275,174.815 342.893,175.99 341.893,176.717"/>
<polygon fill="#0000ff" points="343.275,174.815 341.893,176.717 340.657,176.717"/>
<polygon fill="#0000ff" points="343.275,174.815 340.657,176.717 339.657,175.99"/>
<polygon fill="#0000ff" points="343.275,174.815 339.657,175.99 339.275,174.815"/>
<polygon fill="#0000ff" points="343.275,174.815 339.275,174.815 339.657,173.639"/>
<polygon fill="#0000ff" points="343.275,174.815 339.657,173.639 340.657,172.913"/>
<polygon fill="#0000ff" points="343.275,174.815 340.657,172.913 341.893,172.913"/>
<polygon fill="#0000ff" points="343.275,174.815 341.893,172.913 342.893,173.639"/>
<polygon fill="#0000ff" points="217.904,296.998 217.522,298.174 216.522,298.9"/>
<polygon fill="#0000ff" points="217.904,296.998 216.522,298.9 215.285,298.9"/>
<polygon fill="#0000ff" points="217.904,296.998 215.285,298.9 214.285,298.174"/>
<polygon fill="#0000ff" points="217.904,296.998 214.285,298.174 213.903,296.998"/>
<polygon fill="#0000ff" points="217.904,296.998 213.903,296.998 214.285,295.823"/>
<polygon fill="#0000ff" points="217.904,296.998 214.285,295.823 215.285,295.096"/>
<polygon fill="#0000ff" points="217.904,296.998 215.285,295.096 216.522,295.096"/>
<polygon fill="#0000ff" points="217.904,296.998 216.522,295.096 217.522,295.823"/>
<polygon fill="#0000ff" points="351.425,172.501 351.043,173.677 350.043,174.403"/>
<polygon fill="#0000ff" points="351.425,172.501 350.043,174.403 348.807,174.403"/>
<polygon fill="#0000ff" points="351.425,172.501 348.807,174.403 347.807,173.677"/>
<polygon fill="#0000ff" points="351.425,172.501 347.807,173.677 347.425,172.501"/>
<polygon fill="#0000ff" points="351.425,172.501 347.425,172.501 347.807,171.326"/>
<polygon fill="#0000ff" points="351.425,172.501 347.807,171.326 348.807,170.599"/>
<polygon fill="#0000ff" points="351.425,172.501 348.807,170.599 350.043,170.599"/>
<polygon fill="#0000ff" points="351.425,172.501 350.043,170.599 351.043,171.326"/>
<polygon fill="#0000ff" points="351.185,162.167 350.803,163.343 349.803,164.069"/>
<polygon fill="#0000ff" points="351.185,162.167 349.803,164.069 348.567,164.069"/>
<polygon fill="#0000ff" points="351.185,162.167 348.567,164.069 347.567,163.343"/>
<polygon fill="#0000ff" points="351.185,162.167 347.567,163.343 347.185,162.167"/>
<polygon fill="#0000ff" points="351.185,162.167 347.185,162.167 347.567,160.991"/>
<polygon fill="#0000ff" points="351.185,162.167 347.567,160.991 348.567,160.265"/>
<polygon fill="#0000ff" points="351.185,162.167 348.567,160.265 349.803,160.265"/>
<polygon fill="#0000ff" points="351.185,162.167 349.803,160.265 350.803,160.991"/>
<polygon fill="#0000ff" points="183.518,258.705 183.136,259.88 182.136,260.607"/>
<polygon fill="#0000ff" points="183.518,258.705 182.136,260.607 180.9,260.607"/>
<polygon fill="#0000ff" points="183.518,258.705 180.9,260.607 179.9,259.88"/>
<polygon fill="#0000ff" points="183.518,258.705 179.9,259.88 179.518,258.705"/>
<polygon fill="#0000ff" points="183.518,258.705 179.518,258.705 179.9,257.529"/>
<polygon fill="#0000ff" points="183.518,258.705 179.9,257.529 180.9,256.803"/>
<polygon fill="#0000ff" points="183.518,258.705 180.9,256.803 182.136,256.803"/>
<polygon fill="#0000ff" points="183.518,258.705 182.136,256.803 183.136,257.529"/>
<polygon fill="#0000ff" points="367.41,181.562 367.028,182.737 366.028,183.464"/>
<polygon fill="#0000ff" points="367.41,181.562 366.028,183.464 364.792,183.464"/>
<polygon fill="#0000ff" points="367.41,181.562 364.792,183.464 363.792,182.737"/>
<polygon fill="#0000ff" points="367.41,181.562 363.792,182.737 363.41,181.562"/>
<polygon fill="#0000ff" points="367.41,181.562 363.41,181.562 363.792,180.386"/>
<polygon fill="#0000ff" points="367.41,181.562 363.792,180.386 364.792,179.659"/>
<polygon fill="#0000ff" points="367.41,181.562 364.792,179.659 366.028,179.659"/>
<polygon fill="#0000ff" points="367.41,181.562 366.028,179.659 367.028,180.386"/>
<polygon fill="#0000ff" points="358.024,106.156 357.642,107.331 356.642,108.058"/>
<polygon fill="#0000ff" points="358.024,106.156 356.642,108.058 355.406,108.058"/>
<polygon fill="#0000ff" points="358.024,106.156 355.406,108.058 354.406,107.331"/>
<polygon fill="#0000ff" points="358.024,106.156 354.406,107.331 354.024,106.156"/>
<polygon fill="#0000ff" points="358.024,106.156 354.024,106.156 354.406,104.98"/>
<polygon fill="#0000ff" points="358.024,106.156 354.406,104.98 355.406,104.254"/>
<polygon fill="#0000ff" points="358.024,106.156 355.406,104.254 356.642,104.254"/>
<polygon fill="#0000ff" points="358.024,106.156 356.642,104.254 357.642,104.98"/>
<polygon fill="#0000ff" points="331.941,176.328 331.559,177.504 330.559,178.23"/>
<polygon fill="#0000ff" points="331.941,176.328 330.559,178.23 329.322,178.23"/>
<polygon fill="#0000ff" points="331.941,176.328 329.322,178.23 328.322,177.504"/>
<polygon fill="#0000ff" points="331.941,176.328 328.322,177.504 327.941,176.328"/>
<polygon fill="#0000ff" points="331.941,176.328 327.941,176.328 328.322,175.152"/>
<polygon fill="#0000ff" points="331.941,176.328 328.322,175.152 329.322,174.426"/>
<polygon fill="#0000ff" points="331.941,176.328 329.322,174.426 330.559,174.426"/>
<polygon fill="#0000ff" points="331.941,176.328 330.559,174.426 331.559,175.152"/>
<polygon fill="#0000ff" points="308.18,209.887 307.798,211.063 306.798,211.79"/>
<polygon fill="#0000ff" points="308.18,209.887 306.798,211.79 305.562,211.79"/>
<polygon fill="#0000ff" points="308.18,209.887 305.562,211.79 304.562,211.063"/>
<polygon fill="#0000ff" points="308.18,209.887 304.562,211.063 304.18,209.887"/>
<polygon fill="#0000ff" points="308.18,209.887 304.18,209.887 304.562,208.712"/>
<polygon fill="#0000ff" points="308.18,209.887 304.562,208.712 305.562,207.985"/>
<polygon fill="#0000ff" points="308.18,209.887 305.562,207.985 306.798,207.985"/>
<polygon fill="#0000ff" points="308.18,209.887 306.798,207.985 307.798,208.712"/>
<polygon fill="#0000ff" points="302.184,210.163 301.802,211.339 300.802,212.066"/>
<polygon fill="#0000ff" points="302.184,210.163 300.802,212.066 299.566,212.066"/>
<polygon fill="#0000ff" points="302.184,210.163 299.566,212.066 298.566,211.339"/>
<polygon fill="#0000ff" points="302.184,210.163 298.566,211.339 298.184,210.163"/>
<polygon fill="#0000ff" points="302.184,210.163 298.184,210.163 298.566,208.988"/>
<polygon fill="#0000ff" points="302.184,210.163 298.566,208.988 299.566,208.261"/>
<polygon fill="#0000ff" points="302.184,210.163 299.566,208.261 300.802,208.261"/>
<polygon fill="#0000ff" points="302.184,210.163 300.802,208.261 301.802,208.988"/>
<polygon fill="#0000ff" points="257.015,195.457 256.633,196.632 255.633,197.359"/>
<polygon fill="#0000ff" points="257.015,195.457 255.633,197.359 254.397,197.359"/>
<polygon fill="#0000ff" points="257.015,195.457 254.397,197.359 253.397,196.632"/>
<polygon fill="#0000ff" points="257.015,195.457 253.397,196.632 253.015,195.457"/>
<polygon fill="#0000ff" points="257.015,195.457 253.015,195.457 253.397,194.281"/>
<polygon fill="#0000ff" points="257.015,195.457 253.397,194.281 254.397,193.555"/>
<polygon fill="#0000ff" points="257.015,195.457 254.397,193.555 255.633,193.555"/>
<polygon fill="#0000ff" points="257.015,195.457 255.633,193.555 256.633,194.281"/>
<polygon fill="#0000ff" points="210.841,238.835 210.459,240.011 209.459,240.738"/>
<polygon fill="#0000ff" points="210.841,238.835 209.459,240.738 208.223,240.738"/>
<polygon fill="#0000ff" points="210.841,238.835 208.223,240.738 207.223,240.011"/>
<polygon fill="#0000ff" points="210.841,238.835 207.223,240.011 206.841,238.835"/>
<polygon fill="#0000ff" points="210.841,238.835 206.841,238.835 207.223,237.66"/>
<polygon fill="#0000ff" points="210.841,238.835 207.223,237.66 208.223,236.933"/>
<polygon fill="#0000ff" points="210.841,238.835 208.223,236.933 209.459,236.933"/>
<polygon fill="#0000ff" points="210.841,238.835 209.459,236.933 210.459,237.66"/>
<polygon fill="#0000ff" points="173.157,218.402 172.775,219.577 171.775,220.304"/>
<polygon fill="#0000ff" points="173.157,218.402 171.775,220.304 170.539,220.304"/>
<polygon fill="#0000ff" points="173.157,218.402 170.539,220.304 169.539,219.577"/>
<polygon fill="#0000ff" points="173.157,218.402 169.539,219.577 169.157,218.402"/>
<polygon fill="#0000ff" points="173.157,218.402 169.157,218.402 169.539,217.226"/>
<polygon fill="#0000ff" points="173.157,218.402 169.539,217.226 170.539,216.499"/>
<polygon fill="#0000ff" points="173.157,218.402 170.539,216.499 171.775,216.499"/>
<polygon fill="#0000ff" points="173.157,218.402 171.775,216.499 172.775,217.226"/>
<polygon fill="#0000ff" points="327.546,153.275 327.164,154.451 326.164,155.178"/>
<polygon fill="#0000ff" points="327.546,153.275 326.164,155.178 324.928,155.178"/>
<polygon fill="#0000ff" points="327.546,153.275 324.928,155.178 323.928,154.451"/>
<polygon fill="#0000ff" points="327.546,153.275 323.928,154.451 323.546,153.275"/>
<polygon fill="#0000ff" points="327.546,153.275 323.546,153.275 323.928,152.1"/>
<polygon fill="#0000ff" points="327.546,153.275 323.928,152.1 324.928,151.373"/>
<polygon fill="#0000ff" points="327.546,153.275 324.928,151.373 326.164,151.373"/>
<polygon fill="#0000ff" points="327.546,153.275 326.164,151.373 327.164,152.1"/>
<polygon fill="#0000ff" points="439.697,50.5185 439.315,51.6941 438.315,52.4206"/>
<polygon fill="#0000ff" points="439.697,50.5185 438.315,52.4206 437.079,52.4206"/>
<polygon fill="#0000ff" points="439.697,50.5185 437.079,52.4206 436.079,51.6941"/>
<polygon fill="#0000ff" points="439.697,50.5185 436.079,51.6941 435.697,50.5185"/>
<polygon fill="#0000ff" points="439.697,50.5185 435.697,50.5185 436.079,49.3429"/>
<polygon fill="#0000ff" points="439.697,50.5185 436.079,49.3429 437.079,48.6164"/>
<polygon fill="#0000ff" points="439.697,50.5185 437.079,48.6164 438.315,48.6164"/>
<polygon fill="#0000ff" points="439.697,50.5185 438.315,48.6164 439.315,49.3429"/>
<polygon fill="#0000ff" points="272.038,137.589 271.656,138.764 270.656,139.491"/>
<polygon fill="#0000ff" points="272.038,137.589 270.656,139.491 269.42,139.491"/>
<polygon fill="#0000ff" points="272.038,137.589 269.42,139.491 268.42,138.764"/>
<polygon fill="#0000ff" points="272.038,137.589 268.42,138.764 268.038,137.589"/>
<polygon fill="#0000ff" points="272.038,137.589 268.038,137.589 268.42,136.413"/>
<polygon fill="#0000ff" points="272.038,137.589 268.42,136.413 269.42,135.687"/>
<polygon fill="#0000ff" points="272.038,137.589 269.42,135.687 270.656,135.687"/>
<polygon fill="#0000ff" points="272.038,137.589 270.656,135.687 271.656,136.413"/>
<polygon fill="#0000ff" points="436.376,110.14 435.994,111.315 434.994,112.042"/>
<polygon fill="#0000ff" points="436.376,110.14 434.994,112.042 433.758,112.042"/>
<polygon fill="#0000ff" points="436.376,110.14 433.758,112.042 432.758,111.315"/>
<polygon fill="#0000ff" points="436.376,110.14 432.758,111.315 432.376,110.14"/>
<polygon fill="#0000ff" points="436.376,110.14 432.376,110.14 432.758,108.964"/>
<polygon fill="#0000ff" points="436.376,110.14 432.758,108.964 433.758,108.238"/>
<polygon fill="#0000ff" points="436.376,110.14 433.758,108.238 434.994,108.238"/>
<polygon fill="#0000ff" points="436.376,110.14 434.994,108.238 435.994,108.964"/>
<polygon fill="#0000ff" points="300.305,167.821 299.923,168.996 298.923,169.723"/>
<polygon fill="#0000ff" points="300.305,167.821 298.923,169.723 297.686,169.723"/>
<polygon fill="#0000ff" points="300.305,167.821 297.686,169.723 296.686,168.996"/>
<polygon fill="#0000ff" points="300.305,167.821 296.686,168.996 296.305,167.821"/>
<polygon fill="#0000ff" points="300.305,167.821 296.305,167.821 296.686,166.645"/>
<polygon fill="#0000ff" points="300.305,167.821 296.686,166.645 297.686,165.918"/>
<polygon fill="#0000ff" points="300.305,167.821 297.686,165.918 298.923,165.918"/>
<polygon fill="#0000ff" points="300.305,167.821 298.923,165.918 299.923,166.645"/>
<polygon fill="#0000ff" points="294.424,201.005 294.042,202.18 293.042,202.907"/>
<polygon fill="#0000ff" points="294.424,201.005 293.042,202.907 291.806,202.907"/>
<polygon fill="#0000ff" points="294.424,201.005 291.806,202.907 290.806,202.18"/>
<polygon fill="#0000ff" points="294.424,201.005 290.806,202.18 290.424,201.005"/>
<polygon fill="#0000ff" points="294.424,201.005 290.424,201.005 290.806,199.829"/>
<polygon fill="#0000ff" points="294.424,201.005 290.806,199.829 291.806,199.103"/>
<polygon fill="#0000ff" points="294.424,201.005 291.806,199.103 293.042,199.103"/>
<polygon fill="#0000ff" points="294.424,201.005 293.042,199.103 294.042,199.829"/>
<polygon fill="#0000ff" points="300.374,154.811 299.992,155.987 298.992,156.713"/>
<polygon fill="#0000ff" points="300.374,154.811 298.992,156.713 297.756,156.713"/>
<polygon fill="#0000ff" points="300.374,154.811 297.756,156.713 296.756,155.987"/>
<polygon fill="#0000ff" points="300.374,154.811 296.756,155.987 296.374,154.811"/>
<polygon fill="#0000ff" points="300.374,154.811 296.374,154.811 296.756,153.636"/>
<polygon fill="#0000ff" points="300.374,154.811 296.756,153.636 297.756,152.909"/>
<polygon fill="#0000ff" points="300.374,154.811 297.756,152.909 298.992,152.909"/>
<polygon fill="#0000ff" points="300.374,154.811 298.992,152.909 299.992,153.636"/>
<polygon fill="#0000ff" points="286.315,221.731 285.933,222.907 284.933,223.633"/>
<polygon fill="#0000ff" points="286.315,221.731 284.933,223.633 283.697,223.633"/>
<polygon fill="#0000ff" points="286.315,221.731 283.697,223.633 282.697,222.907"/>
<polygon fill="#0000ff" points="286.315,221.731 282.697,222.907 282.315,221.731"/>
<polygon fill="#0000ff" points="286.315,221.731 282.315,221.731 282.697,220.556"/>
<polygon fill="#0000ff" points="286.315,221.731 282.697,220.556 283.697,219.829"/>
<polygon fill="#0000ff" points="286.315,221.731 283.697,219.829 284.933,219.829"/>
<polygon fill="#0000ff" points="286.315,221.731 284.933,219.829 285.933,220.556"/>
<polygon fill="#0000ff" points="115.036,266.694 114.654,267.869 113.654,268.596"/>
<polygon fill="#0000ff" points="115.036,266.694 113.654,268.596 112.418,268.596"/>
<polygon fill="#0000ff" points="115.036,266.694 112.418,268.596 111.418,267.869"/>
<polygon fill="#0000ff" points="115.036,266.694 111.418,267.869 111.036,266.694"/>
<polygon fill="#0000ff" points="115.036,266.694 111.036,266.694 111.418,265.518"/>
<polygon fill="#0000ff" points="115.036,266.694 111.418,265.518 112.418,264.792"/>
<polygon fill="#0000ff" points="115.036,266.694 112.418,264.792 113.654,264.792"/>
<polygon fill="#0000ff" points="115.036,266.694 113.654,264.792 114.654,265.518"/>
<polyline fill="none" stroke="#000000" stroke-width="0.5" stroke-dasharray="16,0" points="74.88,384.48 521.28,384.48"/>
</g>
</svg>
